<svg xmlns="http://www.w3.org/2000/svg" width="64" height="64" viewBox="0 0 64 64" fill="none">
  <defs>
    <linearGradient id="pinGradient" x1="8" y1="6" x2="52" y2="58" gradientUnits="userSpaceOnUse">
      <stop stop-color="#ff4b4b"/>
      <stop offset="1" stop-color="#d91818"/>
    </linearGradient>
  </defs>
  <path fill="url(#pinGradient)" d="M32 4C19.8 4 10 13.8 10 26c0 15.1 15.1 33.4 18.7 37.4a2 2 0 0 0 2.6 0C34.9 59.4 50 41.1 50 26 50 13.8 44.2 4 32 4Z"/>
  <circle fill="#ffffff" cx="32" cy="24" r="9"/>
  <path fill="rgba(0,0,0,0.12)" d="M32 61c1 0 1.5-.6 2.7-2 2.8-3.3 14.3-17.5 14.3-31 0-.8 0-1.6-.1-2.3-2 13.6-14.8 28.7-18.5 33.1L32 61Z"/>
</svg>
